<svg version="1.0" preserveAspectRatio="xMidYMid meet" height="1080" viewBox="0 0 810 809.999993" zoomAndPan="magnify" width="1080" xmlns:xlink="http://www.w3.org/1999/xlink" xmlns="http://www.w3.org/2000/svg"><defs><g></g><clipPath id="b667b312bc"><path clip-rule="nonzero" d="M 425 213 L 450 213 L 450 269 L 425 269 Z M 425 213"></path></clipPath><clipPath id="675f16c9a1"><path clip-rule="nonzero" d="M 388.398438 202.964844 L 459.632812 204.378906 L 458.148438 279.363281 L 386.910156 277.949219 Z M 388.398438 202.964844"></path></clipPath><clipPath id="e4aef8e30c"><path clip-rule="nonzero" d="M 388.398438 202.964844 L 459.632812 204.378906 L 458.148438 279.363281 L 386.910156 277.949219 Z M 388.398438 202.964844"></path></clipPath><clipPath id="24bf77fd2d"><path clip-rule="nonzero" d="M 387 203 L 425 203 L 425 279 L 387 279 Z M 387 203"></path></clipPath><clipPath id="1dd5ae7c82"><path clip-rule="nonzero" d="M 388.398438 202.964844 L 459.632812 204.378906 L 458.148438 279.363281 L 386.910156 277.949219 Z M 388.398438 202.964844"></path></clipPath><clipPath id="2470f4f68b"><path clip-rule="nonzero" d="M 388.398438 202.964844 L 459.632812 204.378906 L 458.148438 279.363281 L 386.910156 277.949219 Z M 388.398438 202.964844"></path></clipPath><clipPath id="d0f3aa90c6"><path clip-rule="nonzero" d="M 409 225 L 425 225 L 425 257 L 409 257 Z M 409 225"></path></clipPath><clipPath id="bf5ed39214"><path clip-rule="nonzero" d="M 388.398438 202.964844 L 459.632812 204.378906 L 458.148438 279.363281 L 386.910156 277.949219 Z M 388.398438 202.964844"></path></clipPath><clipPath id="d00dad744a"><path clip-rule="nonzero" d="M 388.398438 202.964844 L 459.632812 204.378906 L 458.148438 279.363281 L 386.910156 277.949219 Z M 388.398438 202.964844"></path></clipPath><clipPath id="d3c5caba32"><path clip-rule="nonzero" d="M 440 211 L 448 211 L 448 220 L 440 220 Z M 440 211"></path></clipPath><clipPath id="094b7e371d"><path clip-rule="nonzero" d="M 388.398438 202.964844 L 459.632812 204.378906 L 458.148438 279.363281 L 386.910156 277.949219 Z M 388.398438 202.964844"></path></clipPath><clipPath id="9b583b7565"><path clip-rule="nonzero" d="M 388.398438 202.964844 L 459.632812 204.378906 L 458.148438 279.363281 L 386.910156 277.949219 Z M 388.398438 202.964844"></path></clipPath><clipPath id="7f66e8aa8f"><path clip-rule="nonzero" d="M 446 223 L 454 223 L 454 231 L 446 231 Z M 446 223"></path></clipPath><clipPath id="7af4db5355"><path clip-rule="nonzero" d="M 388.398438 202.964844 L 459.632812 204.378906 L 458.148438 279.363281 L 386.910156 277.949219 Z M 388.398438 202.964844"></path></clipPath><clipPath id="f2f1e411ae"><path clip-rule="nonzero" d="M 388.398438 202.964844 L 459.632812 204.378906 L 458.148438 279.363281 L 386.910156 277.949219 Z M 388.398438 202.964844"></path></clipPath><clipPath id="4bbabcfd12"><path clip-rule="nonzero" d="M 451 237 L 459 237 L 459 246 L 451 246 Z M 451 237"></path></clipPath><clipPath id="cd0ef6bf39"><path clip-rule="nonzero" d="M 388.398438 202.964844 L 459.632812 204.378906 L 458.148438 279.363281 L 386.910156 277.949219 Z M 388.398438 202.964844"></path></clipPath><clipPath id="d045211592"><path clip-rule="nonzero" d="M 388.398438 202.964844 L 459.632812 204.378906 L 458.148438 279.363281 L 386.910156 277.949219 Z M 388.398438 202.964844"></path></clipPath><clipPath id="659ddf306c"><path clip-rule="nonzero" d="M 439 263 L 447 263 L 447 272 L 439 272 Z M 439 263"></path></clipPath><clipPath id="4bba9af09f"><path clip-rule="nonzero" d="M 388.398438 202.964844 L 459.632812 204.378906 L 458.148438 279.363281 L 386.910156 277.949219 Z M 388.398438 202.964844"></path></clipPath><clipPath id="fb1d63d412"><path clip-rule="nonzero" d="M 388.398438 202.964844 L 459.632812 204.378906 L 458.148438 279.363281 L 386.910156 277.949219 Z M 388.398438 202.964844"></path></clipPath><clipPath id="d11c9a51ba"><path clip-rule="nonzero" d="M 445 252 L 453 252 L 453 261 L 445 261 Z M 445 252"></path></clipPath><clipPath id="df5abf082c"><path clip-rule="nonzero" d="M 388.398438 202.964844 L 459.632812 204.378906 L 458.148438 279.363281 L 386.910156 277.949219 Z M 388.398438 202.964844"></path></clipPath><clipPath id="39f758b6a1"><path clip-rule="nonzero" d="M 388.398438 202.964844 L 459.632812 204.378906 L 458.148438 279.363281 L 386.910156 277.949219 Z M 388.398438 202.964844"></path></clipPath></defs><g fill-opacity="1" fill="#ffffff"><g transform="translate(384.306313, 482.691281)"><g><path d="M 21.296875 0 L 21.296875 -177.9375 L 43.859375 -177.9375 L 43.859375 0 Z M 21.296875 0"></path></g></g></g><g clip-path="url(#b667b312bc)"><g clip-path="url(#675f16c9a1)"><g clip-path="url(#e4aef8e30c)"><path fill-rule="evenodd" fill-opacity="1" d="M 430.554688 228.210938 L 426.121094 228.125 L 426.179688 225.054688 L 430.613281 225.144531 C 430.6875 225.144531 430.757812 225.09375 430.757812 225.023438 L 432.722656 216.316406 C 433.054688 214.835938 434.40625 213.777344 435.929688 213.808594 L 438.960938 213.867188 C 438.808594 214.34375 438.726562 214.855469 438.71875 215.40625 C 438.707031 215.9375 438.769531 216.457031 438.898438 216.957031 L 435.871094 216.894531 C 435.796875 216.894531 435.726562 216.945312 435.726562 217.015625 L 433.761719 225.722656 C 433.410156 227.183594 432.078125 228.242188 430.554688 228.210938 Z M 434.222656 232.734375 L 436.308594 226.851562 C 436.703125 225.742188 437.746094 225.035156 438.917969 225.058594 L 444.484375 225.167969 C 444.332031 225.644531 444.25 226.15625 444.238281 226.6875 C 444.230469 227.222656 444.289062 227.753906 444.4375 228.238281 L 439.121094 228.132812 L 437.035156 233.996094 C 436.640625 235.105469 435.59375 235.8125 434.425781 235.789062 L 425.984375 235.621094 L 426.046875 232.554688 L 434.21875 232.71875 L 434.21875 232.734375 Z M 437.871094 268.8125 L 434.839844 268.753906 C 433.316406 268.722656 432.007812 267.613281 431.734375 266.117188 L 430.117188 257.34375 C 430.101562 257.269531 430.046875 257.21875 429.960938 257.214844 L 425.527344 257.128906 L 425.589844 254.0625 L 430.019531 254.148438 C 431.546875 254.179688 432.855469 255.289062 433.125 256.78125 L 434.746094 265.558594 C 434.761719 265.632812 434.8125 265.683594 434.882812 265.6875 L 437.914062 265.746094 C 437.761719 266.222656 437.679688 266.734375 437.671875 267.269531 C 437.679688 267.800781 437.738281 268.3125 437.871094 268.8125 Z M 433.882812 249.773438 L 425.691406 249.609375 L 425.753906 246.542969 L 434.191406 246.710938 C 435.363281 246.734375 436.394531 247.5 436.726562 248.605469 L 438.578125 254.566406 L 443.898438 254.671875 C 443.746094 255.167969 443.648438 255.679688 443.636719 256.226562 C 443.628906 256.757812 443.691406 257.257812 443.820312 257.738281 L 438.253906 257.628906 C 437.085938 257.605469 436.054688 256.839844 435.71875 255.734375 Z M 449.769531 243.097656 L 425.832031 242.625 L 425.894531 239.558594 L 449.828125 240.03125 C 449.679688 240.507812 449.597656 241.019531 449.585938 241.570312 C 449.558594 242.085938 449.636719 242.601562 449.769531 243.097656 Z M 449.769531 243.097656" fill="#ffffff"></path></g></g></g><g clip-path="url(#24bf77fd2d)"><g clip-path="url(#1dd5ae7c82)"><g clip-path="url(#2470f4f68b)"><path fill-rule="evenodd" fill-opacity="1" d="M 395.71875 217.390625 L 400.171875 223.617188 C 400.394531 223.921875 400.386719 224.328125 400.1875 224.625 C 398.285156 227.480469 396.929688 230.609375 396.101562 233.964844 C 396.003906 234.316406 395.714844 234.59375 395.339844 234.640625 L 387.75 235.609375 L 387.5625 244.988281 L 395.113281 246.253906 C 395.484375 246.316406 395.761719 246.605469 395.84375 246.960938 C 396.523438 250.34375 397.769531 253.542969 399.558594 256.449219 C 399.75 256.773438 399.722656 257.179688 399.503906 257.460938 L 394.804688 263.507812 L 401.304688 270.269531 L 407.527344 265.816406 C 407.691406 265.695312 407.871094 265.644531 408.0625 265.648438 C 408.222656 265.652344 408.398438 265.710938 408.539062 265.800781 C 411.390625 267.683594 414.523438 269.058594 417.875 269.890625 C 418.230469 269.984375 418.507812 270.273438 418.550781 270.648438 L 419.519531 278.242188 L 423.328125 278.316406 L 423.589844 265.144531 C 410.691406 264.40625 400.550781 253.5625 400.808594 240.550781 C 401.066406 227.535156 411.632812 217.105469 424.550781 216.882812 L 424.8125 203.691406 L 421.003906 203.617188 L 419.75 211.199219 C 419.691406 211.570312 419.402344 211.847656 419.046875 211.929688 C 415.664062 212.609375 412.460938 213.855469 409.554688 215.644531 C 409.230469 215.832031 408.824219 215.808594 408.542969 215.589844 L 402.5 210.890625 Z M 395.71875 217.390625" fill="#ffffff"></path></g></g></g><g clip-path="url(#d0f3aa90c6)"><g clip-path="url(#bf5ed39214)"><g clip-path="url(#d00dad744a)"><path fill-rule="evenodd" fill-opacity="1" d="M 424.378906 225.605469 C 416.25 225.902344 409.644531 232.53125 409.480469 240.773438 C 409.316406 249 415.65625 255.886719 423.765625 256.523438 Z M 424.378906 225.605469" fill="#ffffff"></path></g></g></g><g clip-path="url(#d3c5caba32)"><g clip-path="url(#094b7e371d)"><g clip-path="url(#9b583b7565)"><path fill-rule="evenodd" fill-opacity="1" d="M 444.269531 211.8125 C 442.230469 211.769531 440.546875 213.386719 440.507812 215.425781 C 440.46875 217.464844 442.085938 219.144531 444.121094 219.1875 C 446.160156 219.226562 447.84375 217.609375 447.882812 215.570312 C 447.925781 213.53125 446.308594 211.851562 444.269531 211.8125 Z M 444.269531 211.8125" fill="#ffffff"></path></g></g></g><g clip-path="url(#7f66e8aa8f)"><g clip-path="url(#7af4db5355)"><g clip-path="url(#f2f1e411ae)"><path fill-rule="evenodd" fill-opacity="1" d="M 446.011719 226.707031 C 445.972656 228.746094 447.605469 230.429688 449.628906 230.46875 C 451.667969 230.507812 453.347656 228.894531 453.386719 226.855469 C 453.429688 224.816406 451.8125 223.132812 449.773438 223.09375 C 447.753906 223.054688 446.054688 224.667969 446.011719 226.707031 Z M 446.011719 226.707031" fill="#ffffff"></path></g></g></g><g clip-path="url(#4bbabcfd12)"><g clip-path="url(#cd0ef6bf39)"><g clip-path="url(#d045211592)"><path fill-rule="evenodd" fill-opacity="1" d="M 455.121094 237.972656 C 453.082031 237.933594 451.398438 239.550781 451.359375 241.589844 C 451.316406 243.628906 452.933594 245.308594 454.972656 245.347656 C 457.011719 245.390625 458.695312 243.773438 458.734375 241.734375 C 458.792969 239.695312 457.15625 238.015625 455.121094 237.972656 Z M 455.121094 237.972656" fill="#ffffff"></path></g></g></g><g clip-path="url(#659ddf306c)"><g clip-path="url(#4bba9af09f)"><g clip-path="url(#fb1d63d412)"><path fill-rule="evenodd" fill-opacity="1" d="M 443.242188 263.6875 C 441.203125 263.644531 439.519531 265.261719 439.480469 267.300781 C 439.4375 269.339844 441.054688 271.023438 443.09375 271.0625 C 445.132812 271.101562 446.816406 269.46875 446.855469 267.449219 C 446.894531 265.410156 445.277344 263.726562 443.242188 263.6875 Z M 443.242188 263.6875" fill="#ffffff"></path></g></g></g><g clip-path="url(#d11c9a51ba)"><g clip-path="url(#df5abf082c)"><g clip-path="url(#39f758b6a1)"><path fill-rule="evenodd" fill-opacity="1" d="M 445.425781 256.246094 C 445.386719 258.285156 447.019531 259.964844 449.042969 260.007812 C 451.082031 260.046875 452.761719 258.429688 452.800781 256.390625 C 452.84375 254.355469 451.226562 252.671875 449.1875 252.632812 C 447.167969 252.589844 445.46875 254.226562 445.425781 256.246094 Z M 445.425781 256.246094" fill="#ffffff"></path></g></g></g><g fill-opacity="1" fill="#330e7d"><g transform="translate(13.908717, 484.867707)"><g><path d="M 76.578125 -180.640625 L 95.921875 -180.640625 L 169.703125 0 L 145.28125 0 L 123.90625 -52.921875 L 48.078125 -52.921875 L 26.96875 0 L 2.546875 0 Z M 118.8125 -70.734375 L 86.25 -154.1875 L 52.671875 -70.734375 Z M 118.8125 -70.734375"></path></g></g></g><g fill-opacity="1" fill="#330e7d"><g transform="translate(209.945676, 484.629165)"><g><path d="M 26.375 -178.328125 L 80.125 -104.484375 L 133.859375 -178.328125 L 159.234375 -178.328125 L 92.671875 -87.90625 L 157.21875 0 L 131.859375 0 L 80.125 -71.328125 L 28.375 0 L 2.765625 0 L 67.3125 -87.90625 L 0.75 -178.328125 Z M 26.375 -178.328125"></path></g></g></g><g fill-opacity="1" fill="#ffffff"><g transform="translate(633.15014, 306.377957)"><g><path d="M -26.140625 176.796875 L -84.65625 28.140625 L -142.921875 176.796875 L -166.578125 176.796875 L -94.875 0 L -74.453125 0 L -2.484375 176.796875 Z M -26.140625 176.796875"></path></g></g></g><g fill-opacity="1" fill="#330e7d"><g transform="translate(647.477611, 484.867707)"><g><path d="M 21.625 0 L 21.625 -180.640625 L 44.53125 -180.640625 L 44.53125 -20.359375 L 145.28125 -20.359375 L 145.28125 0 Z M 21.625 0"></path></g></g></g></svg>